<svg width="994" height="278" viewBox="0 0 994 278" fill="none" xmlns="http://www.w3.org/2000/svg">
<path d="M408.948 44.2727H428.42V96.3434C428.42 102.361 426.988 107.604 424.124 112.071C421.26 116.512 417.265 119.955 412.141 122.398C407.017 124.816 401.065 126.025 394.285 126.025C387.426 126.025 381.435 124.816 376.31 122.398C371.186 119.955 367.205 116.512 364.367 112.071C361.529 107.604 360.11 102.361 360.11 96.3434V44.2727H379.621V94.6484C379.621 97.4339 380.226 99.9173 381.435 102.098C382.67 104.279 384.391 105.988 386.598 107.223C388.806 108.458 391.368 109.075 394.285 109.075C397.202 109.075 399.751 108.458 401.932 107.223C404.139 105.988 405.86 104.279 407.096 102.098C408.331 99.9173 408.948 97.4339 408.948 94.6484V44.2727ZM509.355 44.2727V125H492.799L460.674 78.4084H460.161V125H440.65V44.2727H457.442L489.212 90.7855H489.882V44.2727H509.355ZM518.982 60.1186V44.2727H587.214V60.1186H562.736V125H543.5V60.1186H518.982ZM596.744 125V44.2727H653.032V60.1186H616.255V76.674H650.154V92.5593H616.255V109.154H653.032V125H596.744ZM662.61 60.1186V44.2727H730.842V60.1186H706.364V125H687.128V60.1186H662.61ZM740.371 125V44.2727H759.883V76.674H791.693V44.2727H811.165V125H791.693V92.5593H759.883V125H740.371ZM823.405 125V44.2727H879.693V60.1186H842.916V76.674H876.816V92.5593H842.916V109.154H879.693V125H823.405ZM891.912 125V44.2727H925.26C931.304 44.2727 936.52 45.3633 940.909 47.5444C945.323 49.6992 948.726 52.8001 951.118 56.8469C953.509 60.8675 954.705 65.6371 954.705 71.1555C954.705 76.7528 953.483 81.5092 951.039 85.4247C948.595 89.3139 945.126 92.2834 940.633 94.3331C936.139 96.3565 930.818 97.3683 924.669 97.3683H903.58V81.9954H921.042C923.985 81.9954 926.442 81.6143 928.413 80.8523C930.41 80.0639 931.921 78.8814 932.946 77.3047C933.971 75.7017 934.483 73.652 934.483 71.1555C934.483 68.6591 933.971 66.5962 932.946 64.967C931.921 63.3114 930.41 62.0763 928.413 61.2617C926.416 60.4208 923.959 60.0004 921.042 60.0004H911.424V125H891.912ZM937.361 88.1051L957.464 125H936.178L916.47 88.1051H937.361ZM360.11 255V174.273H379.621V239.154H413.205V255H360.11ZM441.852 255H420.882L448.119 174.273H474.096L501.333 255H480.363L461.403 194.612H460.772L441.852 255ZM439.053 223.229H482.886V238.05H439.053V223.229ZM510.025 255V174.273H543.687C549.731 174.273 554.79 175.127 558.863 176.835C562.963 178.543 566.037 180.934 568.087 184.009C570.163 187.083 571.201 190.644 571.201 194.691C571.201 197.766 570.557 200.512 569.269 202.929C567.982 205.321 566.208 207.305 563.948 208.881C561.688 210.458 559.073 211.562 556.104 212.192V212.981C559.362 213.138 562.371 214.019 565.131 215.622C567.916 217.225 570.15 219.458 571.832 222.323C573.513 225.161 574.354 228.525 574.354 232.414C574.354 236.75 573.251 240.626 571.043 244.042C568.836 247.432 565.643 250.112 561.465 252.083C557.286 254.028 552.215 255 546.25 255H510.025ZM529.536 239.272H541.598C545.829 239.272 548.943 238.471 550.94 236.868C552.964 235.265 553.975 233.031 553.975 230.167C553.975 228.091 553.489 226.304 552.517 224.806C551.545 223.282 550.165 222.113 548.378 221.298C546.591 220.457 544.449 220.037 541.953 220.037H529.536V239.272ZM529.536 207.462H540.337C542.465 207.462 544.358 207.108 546.013 206.398C547.669 205.689 548.956 204.664 549.876 203.324C550.822 201.983 551.295 200.367 551.295 198.475C551.295 195.768 550.336 193.64 548.418 192.089C546.499 190.539 543.911 189.764 540.652 189.764H529.536V207.462ZM627.371 198.475C627.108 195.585 625.939 193.338 623.863 191.735C621.813 190.105 618.883 189.291 615.073 189.291C612.55 189.291 610.448 189.619 608.766 190.276C607.084 190.933 605.823 191.84 604.982 192.996C604.141 194.126 603.707 195.427 603.681 196.898C603.628 198.107 603.865 199.172 604.391 200.091C604.942 201.011 605.731 201.826 606.756 202.535C607.807 203.218 609.068 203.823 610.54 204.348C612.011 204.874 613.667 205.334 615.506 205.728L622.444 207.305C626.438 208.172 629.959 209.328 633.008 210.773C636.082 212.219 638.658 213.94 640.734 215.937C642.836 217.934 644.426 220.234 645.503 222.835C646.581 225.437 647.132 228.354 647.159 231.586C647.132 236.684 645.845 241.059 643.296 244.712C640.747 248.365 637.081 251.163 632.298 253.108C627.542 255.053 621.8 256.025 615.073 256.025C608.319 256.025 602.433 255.013 597.414 252.99C592.394 250.966 588.492 247.892 585.707 243.766C582.921 239.64 581.489 234.424 581.41 228.117H600.094C600.252 230.719 600.948 232.887 602.183 234.621C603.418 236.355 605.113 237.669 607.268 238.563C609.449 239.456 611.972 239.903 614.836 239.903C617.464 239.903 619.698 239.548 621.537 238.839C623.403 238.129 624.835 237.144 625.834 235.882C626.832 234.621 627.345 233.176 627.371 231.547C627.345 230.022 626.872 228.722 625.952 227.644C625.032 226.54 623.613 225.594 621.695 224.806C619.803 223.991 617.385 223.243 614.442 222.559L606.007 220.588C599.017 218.985 593.511 216.397 589.491 212.823C585.47 209.223 583.473 204.362 583.499 198.239C583.473 193.246 584.813 188.87 587.52 185.113C590.226 181.355 593.971 178.425 598.754 176.322C603.536 174.22 608.989 173.169 615.112 173.169C621.366 173.169 626.793 174.233 631.392 176.362C636.017 178.464 639.604 181.42 642.153 185.231C644.702 189.041 646.002 193.456 646.055 198.475H627.371Z" fill="black"/>
<path fill-rule="evenodd" clip-rule="evenodd" d="M245.565 28.1811C249.073 29.1075 255.597 31.6628 260.062 33.8616C264.527 36.0604 271.151 40.5267 274.782 43.787C278.413 47.0473 283.729 53.2603 286.596 57.5914C289.463 61.9237 293.276 69.6433 295.071 74.7458C297.232 80.8875 298.348 87.3476 298.374 93.8581L298.669 167.766L299.002 251.509L294.61 250.689C292.193 250.238 286.49 248.419 281.935 246.647C277.38 244.875 269.956 240.956 265.438 237.938C260.919 234.92 254.07 228.942 250.216 224.654C246.362 220.367 241.181 212.926 238.704 208.12C236.225 203.313 232.592 194.518 231.392 191.224C229.193 185.838 228.062 180.075 228.062 174.257V104.706V26.3447L233.624 26.4216C236.683 26.4636 242.057 27.2559 245.565 28.1811Z" fill="black"/>
<path fill-rule="evenodd" clip-rule="evenodd" d="M200.027 104.534C199.657 175.8 199.427 183.714 197.547 190.059C196.408 193.904 193.681 200.65 191.488 205.05C189.294 209.45 185.122 216.153 182.217 219.946C179.312 223.739 173.908 229.374 170.21 232.466C166.51 235.56 160.682 239.698 157.26 241.663C153.837 243.628 147.03 246.585 142.134 248.234C137.237 249.884 132.409 251.233 131.406 251.233C129.762 251.233 129.582 243.178 129.6 170.542C129.617 104.408 129.925 88.4048 131.308 81.8434C132.237 77.44 134.962 69.8369 137.361 64.9476C140.423 58.7125 144.155 53.5972 149.86 47.8142C154.335 43.2803 160.951 37.8923 164.564 35.8427C168.178 33.7919 174.146 31.0734 177.828 29.7998C181.511 28.5274 188.103 27.1512 192.479 26.7434L200.434 26L200.027 104.534Z" fill="black"/>
<path fill-rule="evenodd" clip-rule="evenodd" d="M48.3961 28.1811C51.9044 29.1075 58.6775 31.7817 63.4477 34.1249C69.7906 37.2419 74.4715 40.7597 80.877 47.2221C87.2813 53.6856 90.7641 58.4047 93.8445 64.7971C96.1606 69.6037 98.8861 77.3105 99.9009 81.9225C101.49 89.1445 101.746 101.492 101.746 170.771C101.746 243.191 101.564 251.233 99.9206 251.233C98.9174 251.233 94.0892 249.892 89.1926 248.253C84.296 246.613 76.6472 243.11 72.196 240.468C67.7436 237.826 60.4369 231.939 55.959 227.388C51.4799 222.835 46.0649 216.128 43.9251 212.484C41.7853 208.839 38.756 202.675 37.1926 198.785C35.628 194.896 33.5961 187.756 32.674 182.918C31.3241 175.827 30.9993 159.808 30.9993 100.234V26.3447L36.5083 26.4216C39.5388 26.4636 44.8877 27.2559 48.3961 28.1811Z" fill="black"/>
</svg>
